<?xml version="1.0" encoding="utf-8"?>
<!-- Generator: Adobe Illustrator 23.0.3, SVG Export Plug-In . SVG Version: 6.00 Build 0)  -->
<svg version="1.1" id="Layer_1" xmlns="http://www.w3.org/2000/svg" xmlns:xlink="http://www.w3.org/1999/xlink" x="0px" y="0px"
	 viewBox="0 0 101 96" style="enable-background:new 0 0 101 96;" xml:space="preserve">
<path fill="param(fill) #FFFFFF" class="st0" d="M101.11,96.13c-33.67,0-67.33,0-100.99,0c0-32,0-64,0-95.99c33.67,0,67.33,0,100.99,0
	C101.11,32.15,101.11,64.14,101.11,96.13z M40.8,11.99c-11.78,0-23.53,0-35.3,0c0,2.6,0,5.17,0,7.8c9.58,0,19.1,0,28.7,0
	c0,22.65,0,45.22,0,67.78c2.24,0,4.42,0,6.6,0C40.8,62.36,40.8,37.19,40.8,11.99z M65.46,19.75c9.62,0,19.15,0,28.7,0
	c0-2.63,0-5.2,0-7.75c-11.8,0-23.55,0-35.3,0c0,25.21,0,50.38,0,75.58c2.21,0,4.38,0,6.6,0C65.46,64.97,65.46,42.42,65.46,19.75z
	 M45.82,0.44c0,0.41,0,0.75,0,1.09c0,21.88,0,43.75,0.01,65.63c0,0.59-0.13,1-0.52,1.42c-2.22,2.38-2.77,6.03-1.43,9.21
	c1.25,2.99,4.16,4.78,7.01,4.16c2.65-0.57,4.5-2.39,5.27-5.45c0.77-3.04,0.11-5.74-1.86-7.93c-0.37-0.41-0.49-0.8-0.49-1.35
	c0.01-21.97,0.01-43.94,0.01-65.91c0-0.29,0-0.58,0-0.88C51.13,0.44,48.52,0.44,45.82,0.44z"/>
<path fill="param(outline) #27AAE1" class="st1" d="M40.8,11.99c0,25.2,0,50.37,0,75.58c-2.19,0-4.36,0-6.6,0c0-22.56,0-45.13,0-67.78c-9.59,0-19.12,0-28.7,0
	c0-2.64,0-5.2,0-7.8C17.27,11.99,29.02,11.99,40.8,11.99z"/>
<path fill="param(outline) #27AAE1" class="st1" d="M65.46,19.75c0,22.67,0,45.22,0,67.82c-2.22,0-4.4,0-6.6,0c0-25.19,0-50.36,0-75.58c11.75,0,23.51,0,35.3,0
	c0,2.56,0,5.13,0,7.75C84.6,19.75,75.07,19.75,65.46,19.75z"/>
<path fill="param(outline) #27AAE1" class="st1" d="M45.82,0.44c2.7,0,5.3,0,8,0c0,0.3,0,0.59,0,0.88c0,21.97,0,43.94-0.01,65.91c0,0.56,0.11,0.94,0.49,1.35
	c1.98,2.19,2.63,4.89,1.86,7.93c-0.77,3.05-2.62,4.88-5.27,5.45c-2.85,0.61-5.76-1.17-7.01-4.16c-1.33-3.18-0.78-6.83,1.43-9.21
	c0.39-0.41,0.52-0.82,0.52-1.42c-0.01-21.88-0.01-43.75-0.01-65.63C45.82,1.19,45.82,0.85,45.82,0.44z"/>
</svg>
