<?xml version="1.0" encoding="utf-8"?>
<!-- Generator: Adobe Illustrator 23.0.3, SVG Export Plug-In . SVG Version: 6.00 Build 0)  -->
<svg version="1.1" id="Layer_1" xmlns="http://www.w3.org/2000/svg" xmlns:xlink="http://www.w3.org/1999/xlink" x="0px" y="0px"
	 viewBox="0 0 63.04 55.75" style="enable-background:new 0 0 63.04 55.75;" xml:space="preserve">
<style type="text/css">
	.st0{fill:#27AAE1;}
	.st1{fill:#FFFFFF;}
</style>
<path class="st0" d="M55.88,3.96c1.2,0.5,1.68,1.42,1.64,2.69c-0.03,1.07-0.01,2.14-0.01,3.22c0,1.69-0.93,2.63-2.61,2.63
	c-0.15,0-0.31,0-0.49,0c0,4.88,0,9.72,0,14.6c0.16,0,0.3,0,0.44,0c1.45,0,2.9,0,4.35,0c0.92,0,1.46,0.55,1.46,1.46
	c0,1.56-0.04,3.11,0.01,4.67c0.03,0.99-0.57,1.66-1.65,1.66c-9.23-0.02-18.46-0.01-27.69-0.01c-6.26,0-12.53-0.01-18.79,0.01
	c-1.02,0-1.69-0.6-1.65-1.65c0.05-1.54,0.01-3.09,0.01-4.63c0-0.95,0.55-1.5,1.51-1.5c1.54,0,3.09,0,4.63,0
	c0.03,0,0.05-0.01,0.11-0.02c0-4.84,0-9.68,0-14.58c-2.23,0.14-3.25-0.97-3.09-3.2c-0.81,0-1.57,0-2.39,0c0,0.69-0.02,1.36,0,2.03
	c0.04,1.11-0.12,1.68-1.58,1.59c-0.39-0.03-0.78,0-1.18,0c-0.32,0-0.64-0.07-0.83,0.33c-0.05,0.11-0.31,0.19-0.48,0.19
	c-1.83,0.01-3.66,0.01-5.49,0.01c-0.44,0-0.68-0.24-0.69-0.68c-0.02-0.48-0.01-0.97,0-1.45c0.01-0.44,0.25-0.68,0.69-0.68
	c1.83-0.01,3.66,0,5.49,0c0.11,0,0.27,0,0.33,0.07c0.5,0.56,1.14,0.22,1.78,0.33c0-0.57,0-1.11,0-1.64c0-0.34-0.01-0.68,0-1.02
	c0.02-0.66,0.39-1.03,1.05-1.05c0.54-0.01,1.07,0,1.61,0c0.54,0,1.07,0,1.68,0c-0.14-1.46,0.03-2.78,1.64-3.38
	C29.09,3.96,42.49,3.96,55.88,3.96z M41.05,15.88c0.11,0,0.31-0.02,0.5,0c0.35,0.03,0.56,0.31,0.49,0.65
	c-0.53,2.63-1.06,5.26-1.6,7.9c-0.12,0.59-0.28,0.71-0.88,0.71c-2.22,0-4.45,0-6.67,0c-0.66,0-0.77-0.07-0.96-0.73
	c-0.73-2.44-1.47-4.89-2.19-7.33c-0.33-1.12-0.32-1.12,0.86-1.22c0.01,0,0.02-0.01,0.04-0.02c-0.02-0.01-0.05-0.02-0.07-0.03
	c0.46-1.11,0.91-2.21,1.35-3.29c-3.85,0-7.75,0-11.64,0c0,4.87,0,9.71,0,14.55c10.37,0,20.71,0,31.07,0c0-4.86,0-9.71,0-14.55
	c-3.94,0-7.85,0-11.67,0C40.13,13.62,40.57,14.71,41.05,15.88z M39.65,15.85c-0.26-1.24-0.76-2.31-1.62-3.19
	c-0.1-0.1-0.3-0.16-0.45-0.16c-0.95-0.01-1.92,0.06-2.86-0.03c-0.88-0.08-1.42,0.24-1.84,0.98c-0.42,0.75-0.81,1.51-0.95,2.4
	C34.51,15.85,37.05,15.85,39.65,15.85z"/>
<path class="st0" d="M40.73,53.7c-1.8,0-3.61,0-5.41,0c-0.51,0-0.62-0.11-0.62-0.62c0-1.32,0-2.64,0-3.96
	c0-0.54,0.08-0.62,0.61-0.62c3.62,0,7.24,0,10.86,0c0.51,0,0.59,0.08,0.6,0.59c0,1.33,0,2.67,0,4c0,0.51-0.1,0.61-0.63,0.61
	C44.34,53.7,42.53,53.7,40.73,53.7z"/>
<path class="st0" d="M40.75,41.08c-1.82,0-3.63,0-5.45,0c-0.5,0-0.59-0.09-0.59-0.59c0-1.33,0-2.67,0-4c0-0.49,0.11-0.6,0.59-0.6
	c3.63,0,7.26,0,10.9,0c0.47,0,0.57,0.1,0.57,0.57c0,1.35,0,2.69,0,4.04c0,0.47-0.11,0.58-0.57,0.58
	C44.38,41.08,42.56,41.08,40.75,41.08z"/>
<path class="st0" d="M36.49,47.38c-1.79,0-3.58,0-5.37,0c-0.56,0-0.64-0.08-0.64-0.63c0-1.32,0-2.64,0-3.96
	c0-0.51,0.11-0.62,0.62-0.62c3.59,0,7.18,0,10.78,0c0.56,0,0.66,0.1,0.66,0.66c0,1.31,0,2.61,0,3.92c0,0.55-0.07,0.63-0.64,0.63
	C40.09,47.39,38.29,47.38,36.49,47.38z"/>
<path class="st0" d="M52.46,35.89c1.37,0,2.74,0,4.12,0c0.46,0,0.55,0.09,0.55,0.55c0,1.37,0,2.74,0,4.12
	c0,0.36-0.13,0.52-0.51,0.52c-2.74-0.01-5.49,0-8.23,0c-0.45,0-0.52-0.08-0.52-0.53c0-1.37,0-2.74,0-4.12
	c0-0.47,0.07-0.54,0.56-0.54C49.77,35.89,51.12,35.89,52.46,35.89z"/>
<path class="st0" d="M29,35.89c1.37,0,2.74,0,4.12,0c0.45,0,0.55,0.1,0.55,0.55c0,1.36,0,2.72,0,4.08c0,0.45-0.1,0.55-0.55,0.55
	c-2.73,0-5.46,0-8.19,0c-0.36,0-0.52-0.13-0.52-0.5c0.01-1.4,0.01-2.8,0-4.19c0-0.38,0.16-0.5,0.52-0.5
	C26.28,35.89,27.64,35.89,29,35.89z"/>
<path class="st0" d="M52.5,48.51c1.36,0,2.72,0,4.08,0c0.47,0,0.55,0.08,0.55,0.55c0,1.36,0,2.72,0,4.08c0,0.46-0.11,0.57-0.58,0.57
	c-2.69,0-5.39,0-8.08,0c-0.53,0-0.6-0.07-0.6-0.58c0-1.36,0-2.72,0-4.08c0-0.47,0.07-0.54,0.55-0.54
	C49.78,48.5,51.14,48.51,52.5,48.51z"/>
<path class="st0" d="M29.03,53.7c-1.35,0-2.69,0-4.04,0c-0.51,0-0.59-0.08-0.59-0.59c0-1.36,0-2.72,0-4.08
	c0-0.45,0.07-0.52,0.53-0.53c2.73,0,5.46,0,8.19,0c0.45,0,0.54,0.09,0.54,0.56c0,1.36,0,2.72,0,4.08c0,0.44-0.12,0.55-0.56,0.55
	C31.75,53.7,30.39,53.7,29.03,53.7z"/>
<path class="st0" d="M18.68,35.89c1.35,0,2.69,0,4.04,0c0.47,0,0.58,0.1,0.58,0.57c0,1.36,0,2.72,0,4.08c0,0.43-0.11,0.54-0.53,0.54
	c-2.74,0-5.49,0-8.23,0.01c-0.38,0-0.51-0.16-0.51-0.52c0.01-1.4,0.01-2.8,0-4.19c0-0.35,0.16-0.48,0.5-0.48
	C15.91,35.89,17.3,35.89,18.68,35.89z"/>
<path class="st0" d="M18.65,53.7c-1.35,0-2.69,0-4.04,0c-0.49,0-0.58-0.08-0.58-0.56c-0.01-1.37,0-2.74,0-4.11
	c0-0.36,0.13-0.52,0.51-0.52c2.74,0.01,5.49,0,8.23,0.01c0.43,0,0.53,0.1,0.54,0.53c0,1.37,0,2.74,0,4.11
	c0,0.43-0.13,0.55-0.57,0.55C21.37,53.7,20.01,53.7,18.65,53.7z"/>
<path class="st0" d="M24.76,47.38c-1.33,0-2.66,0-4,0c-0.53,0-0.6-0.08-0.61-0.62c0-1.33,0-2.66,0-4c0-0.5,0.09-0.59,0.6-0.59
	c2.69,0,5.38,0,8.07,0c0.48,0,0.6,0.12,0.6,0.6c0,1.33,0,2.66,0,4c0,0.51-0.08,0.6-0.59,0.6C27.48,47.39,26.12,47.38,24.76,47.38z"
	/>
<path class="st0" d="M48.22,47.38c-1.33,0-2.66,0-4,0c-0.52,0-0.59-0.07-0.6-0.58c0-1.36,0-2.72,0-4.08c0-0.43,0.1-0.54,0.52-0.54
	c2.73,0,5.46,0,8.19,0c0.43,0,0.55,0.13,0.55,0.57c0,1.36,0,2.72,0,4.08c0,0.46-0.09,0.55-0.55,0.55
	C50.97,47.39,49.6,47.38,48.22,47.38z"/>
<path class="st0" d="M13.98,44.79c0-0.69,0.01-1.39,0-2.08c-0.01-0.36,0.16-0.53,0.51-0.53c1.36,0,2.72,0,4.08,0
	c0.34,0,0.5,0.17,0.5,0.51c0,1.4,0,2.8,0,4.2c0,0.35-0.16,0.5-0.5,0.5c-1.37,0-2.75,0-4.12,0c-0.35,0-0.49-0.17-0.48-0.52
	C13.99,46.18,13.98,45.48,13.98,44.79z"/>
<path class="st0" d="M57.58,47.38c-0.71,0-1.4,0-2.09,0c-0.35,0-0.71,0-1.06,0c-0.3,0-0.47-0.13-0.47-0.44c0-1.44,0-2.87,0-4.31
	c0-0.26,0.12-0.44,0.39-0.44c1.07-0.01,2.14,0,3.22,0C57.58,43.93,57.58,45.63,57.58,47.38z"/>
<path class="st1" d="M41.05,15.88c-0.48-1.17-0.92-2.26-1.37-3.35c3.82,0,7.73,0,11.67,0c0,4.84,0,9.69,0,14.55
	c-10.36,0-20.7,0-31.07,0c0-4.84,0-9.68,0-14.55c3.89,0,7.79,0,11.64,0c-0.44,1.08-0.9,2.18-1.35,3.29
	c0.02,0.01,0.05,0.02,0.07,0.03c-0.01,0.01-0.02,0.02-0.04,0.02c-1.18,0.1-1.19,0.1-0.86,1.22c0.73,2.45,1.46,4.89,2.19,7.33
	c0.2,0.65,0.3,0.73,0.96,0.73c2.22,0,4.45,0,6.67,0c0.6,0,0.76-0.12,0.88-0.71c0.54-2.63,1.07-5.26,1.6-7.9
	c0.07-0.34-0.14-0.62-0.49-0.65C41.36,15.86,41.16,15.88,41.05,15.88z"/>
<path class="st1" d="M39.65,15.85c-2.59,0-5.14,0-7.72,0c0.14-0.89,0.52-1.65,0.95-2.4c0.42-0.74,0.96-1.06,1.84-0.98
	c0.95,0.09,1.91,0.01,2.86,0.03c0.15,0,0.35,0.05,0.45,0.16C38.89,13.54,39.39,14.6,39.65,15.85z"/>
</svg>
